<svg width="42" height="38" viewBox="0 0 42 38" fill="none" xmlns="http://www.w3.org/2000/svg">
<path d="M6.93738 0.804681C9.78405 0.804681 12.092 3.11268 12.092 5.96068C12.092 8.80735 9.78405 11.114 6.93738 11.114C4.08938 11.114 1.78271 8.80735 1.78271 5.96068C1.78271 3.11268 4.08938 0.804681 6.93738 0.804681Z" fill="black"/>
<path d="M40.0638 24.5989H27.6758H25.8318H14.8411V16.5802L19.7971 18.8242L19.7785 15.7349L14.8411 13.3815V9.07221H40.0638V24.5989ZM41.2531 7.37221H28.7918V5.96021H25.4878V7.37221H13.6518H12.8091V9.07221H13.6505V12.8122L11.7145 11.8909H8.81448L6.84781 14.1695L4.94648 11.8909L0.769142 12.6669L0.502477 21.9322H2.27314L2.36914 23.8562H2.63848V25.0282V25.8962V35.0722H2.28248L0.214478 35.5202V37.4269H1.97581L4.03181 37.0935L4.05048 37.4269H6.32781V35.3042V35.0722V25.8962H7.62514V35.0722V35.3042V37.4269H9.90248L9.92114 37.0935L11.9771 37.4269H13.7385V35.5202L11.6678 35.0722H11.3145V25.8962V25.0282V23.8562H11.6411L12.0625 15.3242L13.6505 16.0415V25.8482H25.8318V28.9735L19.1091 36.5602H21.5251L26.0625 31.4322V36.5602H27.4518V31.4375L31.9838 36.5602H34.4385L27.6771 28.9735V25.8482H41.2531V9.07221H41.7851V7.37221H41.2531Z" fill="black"/>
<path d="M27.3346 23.3594C28.932 23.3594 30.388 22.7474 31.4826 21.742L28.9346 19.0967C28.504 19.4634 27.9453 19.6874 27.3346 19.6874C25.9693 19.6874 24.8586 18.578 24.8586 17.2127C24.8586 15.9167 25.8586 14.854 27.1266 14.7474V11.07C23.832 11.1794 21.1853 13.89 21.1853 17.2114C21.1853 20.602 23.944 23.3594 27.3346 23.3594Z" fill="black"/>
<path d="M29.7317 19.2878L32.2797 21.9371C33.4557 20.8545 34.213 19.3265 34.273 17.6211L30.5944 17.6358C30.533 18.2971 30.209 18.8798 29.7317 19.2878Z" fill="black"/>
<path d="M30.1808 16.9818C30.1808 17.0631 30.1755 17.1378 30.1702 17.2164L33.8475 17.2031C33.8502 17.1271 33.8528 17.0578 33.8528 16.9818C33.8528 13.5938 31.0968 10.8364 27.7062 10.8364C27.6355 10.8364 27.5675 10.8391 27.4982 10.8431V14.5204C27.5662 14.5124 27.6355 14.5084 27.7062 14.5084C29.0715 14.5071 30.1808 15.6178 30.1808 16.9818Z" fill="black"/>
<path d="M35.8506 17.7652H38.9346V18.5145H35.8506V17.7652Z" fill="black"/>
<path d="M35.8506 19.0293H38.9346V19.7799H35.8506V19.0293Z" fill="black"/>
<path d="M35.8506 20.3359H38.9346V21.0852H35.8506V20.3359Z" fill="black"/>
<path d="M35.8506 21.6692H38.9346V22.4186H35.8506V21.6692Z" fill="black"/>
<path d="M35.8506 22.9839H38.9346V23.736H35.8506V22.9839Z" fill="black"/>
</svg>
