<svg width="43" height="43" viewBox="0 0 43 43" fill="none" xmlns="http://www.w3.org/2000/svg">
<path d="M18.4596 39.4948C17.1103 38.9388 12.4649 37.1721 7.81294 37.1721C5.97561 37.1721 4.34761 37.4561 2.95827 38.0095V16.5895C3.76761 16.3188 5.97561 15.6828 8.69294 15.6828C12.2636 15.6828 15.3343 16.7601 17.8409 18.8695V31.6548L18.4596 30.9721V39.4948ZM34.3129 38.0148C32.8249 37.4161 31.1103 37.1161 29.2156 37.1161C24.5663 37.1161 20.1409 38.8948 18.8103 39.4815V30.9721L19.4316 31.6548V18.8681C21.7783 16.8948 24.6263 15.8348 27.9156 15.7055L28.5543 14.6321C24.6876 14.6348 21.3503 15.8161 18.6343 18.1468C15.9156 15.8108 12.5729 14.6281 8.69294 14.6281C5.06894 14.6281 2.35161 15.6855 2.23827 15.7295L1.90361 15.8601V18.0015C0.80894 18.2055 0.124939 18.5735 0.124939 19.1721V41.2321H16.3716C16.9356 41.7348 17.7556 42.0548 18.6756 42.0548C19.5956 42.0548 20.4169 41.7375 20.9783 41.2321H36.8183V19.1948L34.3129 24.3815V38.0148Z" fill="black"/>
<path d="M5.04108 19.4063L5.25841 20.2303C10.7451 18.7756 15.6824 21.4663 15.7317 21.4943L16.1464 20.7489C15.9357 20.6343 10.8677 17.8609 5.04108 19.4063Z" fill="black"/>
<path d="M5.04108 21.8217L5.25841 22.643C10.7451 21.187 15.6824 23.8817 15.7317 23.9083L16.1464 23.1643C15.9357 23.0457 10.8677 20.275 5.04108 21.8217Z" fill="black"/>
<path d="M5.04108 24.0885L5.25841 24.9112C10.7451 23.4578 15.6824 26.1538 15.7317 26.1765L16.1464 25.4338C15.9357 25.3138 10.8677 22.5432 5.04108 24.0885Z" fill="black"/>
<path d="M5.04108 26.5741L5.25841 27.3968C10.7451 25.9435 15.6824 28.6368 15.7317 28.6635L16.1464 27.9195C15.9357 27.8021 10.8677 25.0288 5.04108 26.5741Z" fill="black"/>
<path d="M5.04108 28.8776L5.25841 29.7003C10.7451 28.2469 15.6824 30.9403 15.7317 30.9669L16.1464 30.2229C15.9357 30.1056 10.8677 27.3349 5.04108 28.8776Z" fill="black"/>
<path d="M5.04108 31.2448L5.25841 32.0701C10.7451 30.6141 15.6824 33.3061 15.7317 33.3328L16.1464 32.5888C15.9357 32.4701 10.8677 29.7008 5.04108 31.2448Z" fill="black"/>
<path d="M5.04108 33.6158L5.25841 34.4385C10.7451 32.9852 15.6824 35.6758 15.7317 35.7025L16.1464 34.9612C15.9357 34.8412 10.8677 32.0732 5.04108 33.6158Z" fill="black"/>
<path d="M40.3164 6.25262L36.4177 4.35929L37.3657 2.40328L41.2657 4.29795L40.3164 6.25262ZM31.9151 25.014L28.0297 28.15L26.4884 27.4046L26.8684 22.578L27.2284 21.8313L27.9417 24.3566L29.5164 23.3433L29.8257 25.27L32.1777 24.4766L31.9151 25.014ZM36.7737 0.681953L34.2044 5.96862L34.2151 5.97395L26.2631 22.3486L25.5697 30.9673L32.3751 25.4686L40.4084 8.97929L40.4204 8.98595L42.9857 3.69795L36.7737 0.681953Z" fill="black"/>
</svg>
