<svg width="48" height="46" viewBox="0 0 48 46" fill="none" xmlns="http://www.w3.org/2000/svg">
<path d="M23.5924 17.5912C24.9831 17.5912 26.1098 18.7178 26.1098 20.1085C26.1098 21.4978 24.9831 22.6232 23.5924 22.6232C22.2018 22.6232 21.0778 21.4978 21.0778 20.1085C21.0778 18.7178 22.2018 17.5912 23.5924 17.5912Z" fill="black"/>
<path d="M13.1158 17.5912C14.5052 17.5912 15.6332 18.7178 15.6332 20.1085C15.6332 21.4978 14.5052 22.6232 13.1158 22.6232C11.7265 22.6232 10.5985 21.4978 10.5985 20.1085C10.5985 18.7178 11.7265 17.5912 13.1158 17.5912Z" fill="black"/>
<path d="M34.3021 18.1849C35.6915 18.1849 36.8181 19.3129 36.8181 20.7009C36.8181 22.0929 35.6915 23.2169 34.3021 23.2169C32.9115 23.2169 31.7848 22.0929 31.7848 20.7009C31.7848 19.3129 32.9115 18.1849 34.3021 18.1849Z" fill="black"/>
<path d="M7.41345 27.3724C8.80278 27.3724 9.92812 28.5004 9.92812 29.8898C9.92812 31.2804 8.80278 32.4058 7.41345 32.4058C6.02278 32.4058 4.89612 31.2804 4.89612 29.8898C4.89612 28.5004 6.02278 27.3724 7.41345 27.3724Z" fill="black"/>
<path d="M18.819 28.3307C20.2084 28.3307 21.335 29.4573 21.335 30.848C21.335 32.2373 20.2084 33.3627 18.819 33.3627C17.4284 33.3627 16.3017 32.2373 16.3017 30.848C16.3017 29.4573 17.4284 28.3307 18.819 28.3307Z" fill="black"/>
<path d="M31.4571 42.8698C31.4371 42.4831 31.3464 37.3991 31.3131 35.2618L31.3971 35.1845L36.1931 30.5698L35.8491 30.3285L35.9771 29.8338L35.1344 29.2858L35.0157 29.7391L34.8731 29.6378L31.3077 32.6805L30.2317 32.7765L29.0691 33.8325L28.1464 32.7271L26.5997 32.9485C26.5997 32.9485 26.4864 33.2698 26.3184 33.7418C26.2757 33.8631 26.2277 34.0005 26.1784 34.1391C26.1677 34.1698 26.1544 34.1978 26.1464 34.2271C26.0957 34.3698 26.0437 34.5138 25.9877 34.6698C25.5037 36.0125 24.8931 37.6751 24.7904 37.7898C24.7731 37.8085 24.8957 37.8698 25.0757 37.9458L24.9224 38.3471L25.8611 38.7071L26.0157 38.3058C26.2451 38.3911 26.4171 38.4525 26.4171 38.4525L26.9757 36.1431L26.9877 36.1765C26.9091 38.4165 26.7637 42.5578 26.7504 42.9511C26.7317 43.4951 25.4397 43.9311 25.6824 44.2858C25.7544 44.3885 26.3757 44.3978 27.2211 44.3898V44.7711H28.7331V44.3751C28.8931 44.3751 29.0544 44.3751 29.2157 44.3765C29.2624 44.3778 29.3091 44.3778 29.3544 44.3778V44.7711H30.8664V44.4125C31.8597 44.4338 32.6331 44.4311 32.7464 44.2471C33.0384 43.7245 31.4891 43.4085 31.4571 42.8698Z" fill="black"/>
<path d="M30.4596 27.8541C30.4476 27.8461 30.4409 27.8368 30.4302 27.8301C30.0222 27.5448 29.5289 27.3714 28.9876 27.3714C27.5996 27.3714 26.4729 28.4981 26.4729 29.8874C26.4729 31.2768 27.5996 32.4034 28.9876 32.4034C30.3769 32.4034 31.5036 31.2754 31.5036 29.8874C31.5062 29.0501 31.0902 28.3128 30.4596 27.8541Z" fill="black"/>
<path d="M42.4726 43.3372C42.4526 42.9492 42.362 37.8652 42.3286 35.7305L47.206 31.0385L46.8646 30.7945L46.9913 30.3025L46.15 29.7532L46.0313 30.2052L45.8873 30.1052L42.3233 33.1479L41.2473 33.2439L40.0846 34.3012L39.1593 33.1932L37.6153 33.4159C37.6153 33.4159 37.458 33.8652 37.234 34.4879C37.2153 34.5399 37.1993 34.5879 37.1793 34.6425C37.1686 34.6705 37.1593 34.6959 37.1486 34.7252C37.1153 34.8199 37.0753 34.9265 37.038 35.0319C36.5486 36.3945 35.9073 38.1425 35.8033 38.2572C35.786 38.2759 35.91 38.3345 36.0886 38.4119L35.9353 38.8159L36.8726 39.1745L37.0286 38.7732C37.2593 38.8585 37.43 38.9199 37.43 38.9199L37.9886 36.6105L38.0006 36.6439C37.922 38.8825 37.778 43.0252 37.7646 43.4185C37.746 43.9599 36.4526 44.3985 36.6953 44.7519C36.7686 44.8559 37.39 44.8639 38.234 44.8572V45.2399H39.746V44.8439H40.23C40.2753 44.8452 40.322 44.8465 40.366 44.8465V45.2399H41.8766V44.8772C42.8713 44.9025 43.6446 44.8972 43.7593 44.7159C44.0526 44.1932 42.5006 43.8759 42.4726 43.3372Z" fill="black"/>
<path d="M40.0039 27.84C41.3945 27.84 42.5199 28.9666 42.5199 30.3573C42.5199 31.7466 41.3945 32.8733 40.0039 32.8733C38.6132 32.8733 37.4879 31.7466 37.4879 30.3573C37.4879 28.9666 38.6132 27.84 40.0039 27.84Z" fill="black"/>
<path d="M29.4186 13.5676L30.5266 14.2756L30.2946 14.6396L29.508 14.1356L29.624 13.9556L28.9586 13.5289L28.5973 14.0943L29.2626 14.5196L29.34 14.3983L30.1253 14.9009L29.9826 15.1223L30.324 15.3409L33.472 10.4276L33.1306 10.2089L32.656 10.9529L31.548 10.2449L29.9466 11.6343L29.4186 13.5676Z" fill="black"/>
<path d="M10.6438 12.4656L11.7932 14.1069L13.0465 13.7083L13.1772 14.1176L12.2878 14.4016L12.2212 14.1976L11.4692 14.4349L11.6718 15.0736L12.4252 14.8349L12.3838 14.6976L13.2705 14.4149L13.3505 14.6669L13.7358 14.5443L11.9705 8.98028L11.5878 9.10294L11.8518 9.94561L10.5985 10.3443L10.6438 12.4656Z" fill="black"/>
<path d="M20.8548 12.1082L21.6001 12.6708L21.4415 12.8802L21.7655 13.1268L25.2841 8.46816L24.9628 8.2255L24.4281 8.93083L23.3788 8.14016L21.6748 9.39883L20.9988 11.2882L22.0495 12.0802L21.7895 12.4228L21.0441 11.8588L21.1748 11.6895L20.5428 11.2122L20.1401 11.7468L20.7708 12.2242L20.8548 12.1082Z" fill="black"/>
<path d="M41.0644 14.7944L42.3657 14.989L42.3017 15.413L41.3791 15.2757L41.4111 15.0624L40.6311 14.9477L40.5297 15.6104L41.3137 15.7277L41.3337 15.5837L42.2564 15.721L42.2177 15.9837L42.6177 16.0424L43.4764 10.2664L43.0764 10.209L42.9457 11.0837L41.6457 10.8917L40.7551 12.8144L41.0644 14.7944Z" fill="black"/>
<path d="M18.0488 7.02273L17.2114 6.7374L17.6341 5.49473L15.9021 4.27206L13.8968 4.22406L13.4728 5.4694L13.0688 5.33073L13.3661 4.44806L13.5688 4.51606L13.8234 3.77206L13.1901 3.55206L12.9354 4.3014L13.0714 4.34806L12.7714 5.2294L12.5221 5.1454L12.3914 5.52806L17.9194 7.4054L18.0488 7.02273Z" fill="black"/>
<path d="M25.2787 2.71153L25.7027 3.5382L25.4693 3.65953L25.6547 4.01953L30.844 1.3502L30.6587 0.992865L29.872 1.3942L29.2707 0.224865L27.1893 0.626198L25.7613 2.0302L26.3627 3.20086L25.9813 3.3982L25.5533 2.56753L25.744 2.4702L25.384 1.76753L24.7867 2.07286L25.148 2.7782L25.2787 2.71153Z" fill="black"/>
<path d="M35.8737 6.43564L36.5711 7.55164L38.6124 6.9823L39.9164 5.46097L39.2231 4.34497L39.5871 4.11697L40.0817 4.90897L39.9004 5.02097L40.3164 5.69297L40.8857 5.33697L40.4657 4.66764L40.3457 4.74364L39.8497 3.95297L40.0724 3.81297L39.8604 3.46897L34.9084 6.5623L35.1217 6.9063L35.8737 6.43564Z" fill="black"/>
<path d="M41.1601 21.1392L41.2895 20.6459L40.4455 20.0992L40.3295 20.5526L40.1855 20.4486L36.6215 23.4926L35.5441 23.5886L34.3815 24.6432L33.4575 23.5379L31.9121 23.7619C31.9121 23.7619 31.1761 25.8512 30.6388 27.2859C31.1828 27.6326 31.6121 28.1406 31.8548 28.7459L32.2868 26.9539L32.2988 26.9872C32.2601 28.1459 32.2028 29.8099 32.1521 31.2032L34.5001 29.2006L34.5801 29.1299L34.7788 28.3712L35.4468 28.8059L36.2895 29.3499L36.6375 29.5752L36.5321 29.9806L36.5055 30.0886L36.5215 30.1046L36.6961 30.2259C36.6681 28.7179 36.6415 27.0752 36.6268 26.0739L41.5041 21.3846L41.1601 21.1392Z" fill="black"/>
<path d="M36.1784 35.582V35.2234C36.2384 35.2247 36.2984 35.2247 36.357 35.2274C36.517 34.79 36.681 34.3327 36.845 33.8714C36.801 33.8114 36.7757 33.7474 36.7704 33.682C36.7597 33.502 36.7357 32.3087 36.7077 30.8714L36.5904 30.9874L32.2064 35.206C32.3104 35.2034 32.4184 35.2034 32.533 35.202V35.5834H34.045V35.1874C34.205 35.1874 34.369 35.1874 34.5304 35.19H34.6664V35.5834H36.1784V35.582Z" fill="black"/>
<path d="M21.4863 34.6927C21.4036 34.4647 21.3369 34.2767 21.2889 34.1381C21.2849 34.1327 21.2823 34.1234 21.2796 34.1167C21.2329 33.9834 21.2076 33.9021 21.2076 33.9021L20.5476 33.8087L19.6609 33.6807L18.7383 34.7874L17.5756 33.7287L16.4969 33.6354L12.9316 30.5941L12.7903 30.6927L12.6703 30.2407L11.8276 30.7887L11.9583 31.2834L11.6143 31.5261L16.4929 36.2181C16.4596 38.3514 16.3689 43.4367 16.3476 43.8247C16.3169 44.3647 14.7676 44.6794 15.0583 45.2021C15.1729 45.3861 15.9463 45.3874 16.9396 45.3647V45.7261H18.4516V45.3327C18.4983 45.3327 18.5423 45.3327 18.5889 45.3314C18.7503 45.3301 18.9129 45.3301 19.0729 45.3301V45.7261H20.5863V45.3461C21.4303 45.3541 22.0516 45.3447 22.1223 45.2394C22.3649 44.8874 21.0743 44.4487 21.0556 43.9061C21.0396 43.5114 20.8983 39.3714 20.8169 37.1341L20.8316 37.0994L21.3889 39.4061C21.3889 39.4061 21.5596 39.3447 21.7916 39.2621L21.9449 39.6647L22.8836 39.3047L22.7303 38.8994C22.9103 38.8247 23.0316 38.7647 23.0143 38.7474C22.8903 38.6034 21.9623 36.0274 21.4863 34.6927Z" fill="black"/>
<path d="M25.2396 35.0468C25.4689 34.4094 25.7209 33.7121 25.9609 33.0281C25.9169 31.7961 25.6876 25.5374 25.6876 25.5374L30.8262 21.6961L30.6902 21.4534L31.0369 21.1614L30.5049 20.3921L30.2022 20.5748L30.0729 20.3454L25.5649 23.1441L24.5222 23.0641L23.6502 24.1068L22.4889 23.0494L21.4089 22.9548L17.8636 19.9388L17.6649 20.0001L17.3769 19.6988L16.5316 20.2468L16.8382 20.5841C16.7969 20.6161 16.5356 20.8908 16.5356 20.8908L21.4062 25.5414C21.3929 26.5281 21.3649 28.1454 21.3369 29.6388C21.5142 30.0081 21.6209 30.4134 21.6209 30.8494C21.6209 31.3254 21.4982 31.7721 21.2849 32.1654C21.2742 32.6894 21.2649 33.0561 21.2596 33.1481C21.2569 33.2081 21.2302 33.2681 21.1929 33.3241L21.2849 33.3388L21.6289 33.3881L21.7449 33.7161C21.8929 34.1281 22.0529 34.5841 22.2196 35.0494H23.3609V34.6561C23.4062 34.6548 23.4542 34.6534 23.4969 34.6534C23.6582 34.6534 23.8222 34.6508 23.9836 34.6534V35.0494H25.2396V35.0468Z" fill="black"/>
<path d="M10.7181 31.4609L11.2848 31.0582L11.3035 31.0449L11.2755 30.9356L11.1688 30.5369L11.5195 30.3102L12.3595 29.7636L13.0275 29.3276L13.2261 30.0889L13.3088 30.1569L15.3101 31.8662C15.2568 30.3649 15.1701 27.9329 15.1181 26.3969L15.1315 26.3636L15.6901 28.6702C15.6901 28.6702 15.8608 28.6102 16.0928 28.5249L16.2461 28.9276L17.1848 28.5676L17.0288 28.1636C17.2115 28.0889 17.3328 28.0276 17.3155 28.0102C17.1421 27.8169 15.5048 23.1689 15.5048 23.1689L13.9595 22.9462L13.0355 24.0502L11.8728 22.9942L10.7955 22.8982L7.23147 19.8542L7.0888 19.9582L6.97013 19.5049L6.13013 20.0529L6.25813 20.5462L5.91547 20.7902L10.7928 25.4822C10.7608 27.6156 10.6688 32.7022 10.6475 33.0876C10.6421 33.1676 10.6021 33.2436 10.5448 33.3129C10.6941 33.7396 10.8568 34.1902 11.0155 34.6342C11.0915 34.6329 11.1621 34.6316 11.2395 34.6302V34.9889H12.7501V34.5956H12.8861C13.0488 34.5929 13.2115 34.5929 13.3715 34.5929V34.9889H14.3875L11.2181 31.9409L10.7181 31.4609Z" fill="black"/>
<path d="M10.4056 34.6367C10.3483 34.4727 10.2896 34.314 10.2349 34.162C10.2269 34.1407 10.2203 34.1207 10.2109 34.0994C10.1603 33.9487 10.1083 33.806 10.0616 33.678C9.9056 33.238 9.8016 32.9474 9.8016 32.9474L8.2576 32.726L7.33227 33.8314L6.1696 32.7754L5.0936 32.6807L1.5296 29.638L1.38427 29.7394L1.26694 29.2847L0.425604 29.8327L0.552271 30.3287L0.210938 30.57L5.08827 35.262C5.05627 37.398 4.96427 42.4834 4.94427 42.87C4.91227 43.4087 3.36427 43.7234 3.65627 44.2474C3.76694 44.4314 4.54294 44.434 5.53627 44.4127V44.7714H7.04827V44.378C7.09227 44.378 7.13894 44.378 7.18427 44.3767C7.34694 44.3754 7.50827 44.3754 7.6696 44.3754V44.7714H9.18294V44.3887C10.0256 44.3967 10.6469 44.3874 10.7203 44.2847C10.9616 43.9314 9.67094 43.4954 9.65094 42.95C9.63627 42.5554 9.49227 38.4167 9.4136 36.1767L9.4256 36.1434L9.98427 38.4514C9.98427 38.4514 10.1563 38.39 10.3869 38.306L10.5416 38.7074L11.4789 38.3474L11.3243 37.9447C11.5056 37.87 11.6283 37.8087 11.6123 37.79C11.5096 37.674 10.8909 35.9887 10.4056 34.6367Z" fill="black"/>
</svg>
