<svg width="31" height="50" viewBox="0 0 31 50" fill="none" xmlns="http://www.w3.org/2000/svg">
<path d="M16.5143 40.0703H19.3103C18.8583 42.045 17.8716 43.825 16.5143 45.2477V40.0703ZM11.2636 40.0703H14.0596V45.2477C12.7036 43.825 11.7156 42.045 11.2636 40.0703ZM19.1543 34.569C19.4303 35.5397 19.5876 36.553 19.5876 37.605H16.5143C16.5143 36.0543 17.6676 34.781 19.1543 34.569ZM11.4196 34.569C12.9063 34.781 14.0596 36.0543 14.0596 37.605H10.9863C10.9863 36.553 11.1436 35.5397 11.4196 34.569V34.569ZM26.1969 30.221H27.5903V37.605H22.0516C22.0516 36.3597 21.8769 35.1503 21.5636 34.005L22.7449 33.729C24.4249 33.2677 25.7529 31.921 26.1969 30.221V30.221ZM2.98493 30.221H4.37826C4.82093 31.921 6.14093 33.2677 7.83026 33.729L9.01159 34.005C8.69693 35.1503 8.52093 36.3597 8.52093 37.605H2.98493V30.221ZM15.2863 26.1983C15.9423 28.3583 16.8556 30.4077 17.9823 32.317C16.9116 32.6503 15.9689 33.2863 15.2863 34.1357C14.6049 33.277 13.6623 32.6503 12.5916 32.317C13.7183 30.4077 14.6316 28.3583 15.2863 26.1983V26.1983ZM27.5903 9.56635V27.7583H26.1969C25.8356 26.3743 24.8756 25.229 23.6209 24.601L24.6089 16.3223C24.9236 13.7583 25.9929 11.4317 27.5903 9.56635ZM2.98493 9.56635C4.58093 11.4317 5.65159 13.7583 5.96493 16.3223L6.95293 24.601C5.69826 25.229 4.73826 26.3743 4.37826 27.7583H2.98493V9.56635ZM15.2863 0.743681C14.1423 2.04501 13.4409 3.75302 13.4409 5.61702C13.5143 9.72368 14.0143 13.8223 14.0596 17.929C14.1516 21.749 13.0076 25.3397 11.6143 28.837C11.1436 29.8077 10.6449 30.7583 10.1369 31.709L8.65959 31.4037C7.32226 31.1357 6.45426 29.8437 6.72226 28.5143C6.96226 27.3423 7.98626 26.541 9.13026 26.5303L9.66626 26.5863L8.46626 16.5623C8.07026 12.0957 5.77159 8.17302 2.37559 5.61702C1.78493 5.18368 1.16626 4.78635 0.519592 4.42768V40.069H8.75293C9.37159 43.4103 11.2076 46.3197 13.7916 48.3197C14.4103 48.7357 14.9183 49.2983 15.2863 49.9543C15.6556 49.2983 16.1636 48.7357 16.7823 48.3197C19.3663 46.3197 21.2036 43.4103 21.8209 40.069H30.0543V4.42768C29.4076 4.78635 28.7903 5.18368 28.1996 5.61702C24.8023 8.17302 22.5049 12.0957 22.1076 16.5623L20.9076 26.5863L21.4423 26.5303C22.5876 26.541 23.6116 27.3423 23.8516 28.5143C24.1196 29.8437 23.2516 31.1357 21.9143 31.4037L20.4369 31.709C19.9303 30.7583 19.4303 29.8077 18.9609 28.837C17.5676 25.3397 16.4223 21.749 16.5143 17.929C16.5609 13.8223 17.0596 9.72368 17.1329 5.61702C17.1329 3.75302 16.4316 2.04501 15.2863 0.743681" fill="black"/>
</svg>
