<svg width="39" height="39" viewBox="0 0 39 39" fill="none" xmlns="http://www.w3.org/2000/svg">
<path d="M38.3333 36.1081C38.3333 37.4627 37.2346 38.5601 35.8813 38.5601H2.78531C1.43198 38.5601 0.333313 37.4627 0.333313 36.1081V3.01206C0.333313 1.65739 1.43198 0.560057 2.78531 0.560057H35.8813C37.2346 0.560057 38.3333 1.65739 38.3333 3.01206V36.1081Z" fill="#3B5998"/>
<path d="M1.45728 30.2786H37.2093V35.8079H1.45728V30.2786Z" fill="#6D84B4"/>
<path d="M28.3372 35.8047H21.8479V20.1021H18.6052V14.6901H21.8479V11.4421C21.8479 7.02605 23.6786 4.39938 28.8786 4.39938H33.2079V9.81138H30.5012C28.4759 9.81138 28.3426 10.5674 28.3426 11.982L28.3372 14.6887H33.2386L32.6639 20.1021H28.3372V35.8047Z" fill="white"/>
</svg>
