<svg width="37" height="31" viewBox="0 0 37 31" fill="none" xmlns="http://www.w3.org/2000/svg">
<path d="M20.7421 27.5235L16.9181 16.0515H13.2047L10.8087 7.07146L8.61539 16.0515H6.10339C10.8621 23.1461 19.8847 30.9235 19.8847 30.9235C19.8847 30.9235 28.8327 23.1461 33.5541 16.0515H24.0527L20.7421 27.5235Z" fill="black"/>
<path d="M28.8592 0.29167C25.7859 -0.034996 20.7005 1.85167 19.8179 6.77567C18.9352 1.85167 13.8512 -0.034996 10.7832 0.29167C7.02453 0.693005 2.06719 2.35034 3.32586 10.0463C3.57386 11.5757 4.38319 13.317 5.50586 15.1277H7.88719L10.7685 3.34767L13.9112 15.1277H17.5819L20.6779 24.4183L23.3592 15.1277H33.8552V15.5903C35.1232 13.6117 36.0445 11.7037 36.3152 10.045C37.5725 2.35034 32.6099 0.693005 28.8592 0.29167Z" fill="black"/>
<path d="M33.8554 16.0509V15.5909C33.7594 15.7429 33.6554 15.8989 33.5541 16.0509H33.8554Z" fill="black"/>
<path d="M0.640625 15.1276V16.0503H6.10462C5.89796 15.7423 5.69929 15.4343 5.50596 15.1276H0.640625Z" fill="black"/>
</svg>
