<svg width="16" height="15" viewBox="0 0 16 15" fill="none" xmlns="http://www.w3.org/2000/svg">
<path d="M12.4908 11.92C11.9775 12.4333 11.3895 12.8507 10.7388 13.1613C11.2122 12.5333 11.6042 11.7453 11.8895 10.848H13.3535C13.1082 11.2333 12.8188 11.5907 12.4908 11.92ZM2.63884 10.848H4.10418C4.38951 11.7453 4.78284 12.5333 5.25484 13.1613C4.60418 12.8507 4.01751 12.4333 3.50284 11.92C3.17484 11.5907 2.88551 11.2333 2.63884 10.848ZM3.50284 2.93067C4.01751 2.41733 4.60418 2 5.25484 1.68933C4.78284 2.31733 4.38951 3.10533 4.10418 4.00267H2.63884C2.88551 3.61733 3.17484 3.25867 3.50284 2.93067ZM13.3535 4.00267H11.8895C11.6042 3.10533 11.2122 2.31733 10.7388 1.68933C11.3895 2 11.9775 2.41733 12.4908 2.93067C12.8188 3.25867 13.1082 3.61733 13.3535 4.00267ZM12.3868 6.936C12.3602 6.25467 12.2775 5.59867 12.1455 4.98H13.8655C14.1268 5.60533 14.2828 6.26133 14.3348 6.936H12.3868ZM8.48551 9.86933V7.91467H11.4082C11.3802 8.588 11.2922 9.244 11.1442 9.86933H8.48551ZM10.2708 12.108C9.94018 12.656 9.55218 13.0973 9.14684 13.384C8.92951 13.536 8.70818 13.6453 8.48551 13.7107V10.848H10.8575C10.6935 11.308 10.4962 11.7293 10.2708 12.108ZM7.50817 10.848V13.7107C7.28551 13.6453 7.06418 13.536 6.84818 13.384C6.44151 13.0973 6.05351 12.656 5.72284 12.108C5.49751 11.7293 5.29884 11.308 5.13484 10.848H7.50817ZM4.58418 7.91467H7.50817V9.86933H4.84951C4.70151 9.244 4.61351 8.588 4.58418 7.91467ZM2.12818 9.86933C1.86684 9.24533 1.71084 8.58933 1.65884 7.91467H3.60684C3.63351 8.596 3.71618 9.252 3.84818 9.86933H2.12818ZM7.50817 4.98V6.936H4.58418C4.61351 6.26133 4.70151 5.60667 4.84951 4.98H7.50817ZM5.72284 2.74267C6.05351 2.19467 6.44151 1.75333 6.84818 1.46667C7.06418 1.31333 7.28551 1.20533 7.50817 1.14V4.00267H5.13484C5.29884 3.54267 5.49751 3.12133 5.72284 2.74267ZM8.48551 4.00267V1.14C8.70818 1.20533 8.92951 1.31333 9.14684 1.46667C9.55218 1.75333 9.94018 2.19467 10.2708 2.74267C10.4962 3.12133 10.6935 3.54267 10.8575 4.00267H8.48551ZM11.1442 4.98C11.2922 5.60667 11.3802 6.26133 11.4082 6.936H8.48551V4.98H11.1442ZM3.84818 4.98C3.71618 5.59867 3.63218 6.25467 3.60684 6.936H1.65884C1.71084 6.26133 1.86684 5.60533 2.12818 4.98H3.84818ZM12.1455 9.86933C12.2775 9.252 12.3602 8.596 12.3868 7.91467H14.3348C14.2828 8.58933 14.1268 9.24533 13.8655 9.86933H12.1455ZM7.99751 0.0906677C3.94684 0.0906677 0.662842 3.37467 0.662842 7.42533C0.662842 11.476 3.94684 14.7587 7.99751 14.7587C12.0468 14.7587 15.3308 11.476 15.3308 7.42533C15.3308 3.37467 12.0468 0.0906677 7.99751 0.0906677Z" fill="#999999"/>
</svg>
